<svg width="88" height="88" viewBox="0 0 88 88" fill="none" xmlns="http://www.w3.org/2000/svg">
<circle cx="44" cy="44" r="44" fill="#DEE7FF" fill-opacity="0.5"/>
<circle cx="44" cy="44" r="36" fill="#C8D7FF"/>
<circle cx="44" cy="44" r="29" fill="#0351DF" stroke="white" stroke-width="2"/>
<path d="M44.002 36L44.2882 36.0048C48.2192 36.1355 51.7497 38.9009 53.7968 43.3856L53.9361 43.699C54.0203 43.8884 54.0213 44.104 53.9391 44.2942C51.8707 49.0769 48.1389 52 43.998 52L43.7118 51.9952C39.7754 51.8644 36.2464 49.0931 34.2042 44.6168L34.0609 44.2942C33.9797 44.1064 33.9797 43.8936 34.0609 43.7058C36.1293 38.9231 39.8611 36 44.002 36ZM44.009 37.4894C40.6915 37.4903 37.6112 39.7731 35.7266 43.6662L35.57 43.9991L35.7391 44.3597C37.5264 48.0344 40.3827 50.2721 43.4806 50.4915L43.7469 50.5054L44.004 50.5088L44.2589 50.505C47.5569 50.3853 50.5987 48.0005 52.4197 44.0231L52.429 43.9991C50.6525 40.1055 47.7122 37.7348 44.5149 37.5085L44.2479 37.4946L44.009 37.4894ZM43.9995 40.1135C46.16 40.1135 47.9115 41.8532 47.9115 44.0002C47.9115 46.1463 46.1598 47.8859 43.9995 47.8859C41.8393 47.8859 40.0885 46.1465 40.0885 44.0002C40.0885 41.8531 41.8391 40.1135 43.9995 40.1135ZM43.9995 41.6038C42.6676 41.6038 41.5885 42.6761 41.5885 44.0002C41.5885 45.3234 42.6677 46.3956 43.9995 46.3956C45.3316 46.3956 46.4115 45.3231 46.4115 44.0002C46.4115 42.6764 45.3317 41.6038 43.9995 41.6038Z" fill="white"/>
</svg>
